0
SECTION
2
HEADER
9
$INSUNITS
70
4
9
$ACADVER
1
AC1014
9
$HANDSEED
5
FFFF
0
ENDSEC
0
SECTION
2
TABLES
0
TABLE
2
VPORT
5
8
100
AcDbSymbolTable
0
ENDTAB
0
TABLE
2
LTYPE
5
5
100
AcDbSymbolTable
0
LTYPE
5
14
100
AcDbSymbolTableRecord
100
AcDbLinetypeTableRecord
2
BYBLOCK
70
0
0
LTYPE
5
15
100
AcDbSymbolTableRecord
100
AcDbLinetypeTableRecord
2
BYLAYER
70
0
0
ENDTAB
0
TABLE
2
LAYER
5
2
100
AcDbSymbolTable
70
2
0
LAYER
5
50
100
AcDbSymbolTableRecord
100
AcDbLayerTableRecord
2
0
70
0
6
CONTINUOUS
0
ENDTAB
0
TABLE
2
STYLE
5
3
100
AcDbSymbolTable
70
1
0
STYLE
5
11
100
AcDbSymbolTableRecord
100
AcDbTextStyleTableRecord
2
STANDARD
70
0
0
ENDTAB
0
TABLE
2
VIEW
5
6
100
AcDbSymbolTable
70
0
0
ENDTAB
0
TABLE
2
UCS
5
7
100
AcDbSymbolTable
70
0
0
ENDTAB
0
TABLE
2
APPID
5
9
100
AcDbSymbolTable
70
2
0
APPID
5
12
100
AcDbSymbolTableRecord
100
AcDbRegAppTableRecord
2
ACAD
70
0
0
ENDTAB
0
TABLE
2
DIMSTYLE
5
A
100
AcDbSymbolTable
70
1
0
ENDTAB
0
TABLE
2
BLOCK_RECORD
5
1
100
AcDbSymbolTable
70
1
0
BLOCK_RECORD
5
1F
100
AcDbSymbolTableRecord
100
AcDbBlockTableRecord
2
*MODEL_SPACE
0
BLOCK_RECORD
5
1B
100
AcDbSymbolTableRecord
100
AcDbBlockTableRecord
2
*PAPER_SPACE
0
ENDTAB
0
ENDSEC
0
SECTION
2
BLOCKS
0
BLOCK
5
20
100
AcDbEntity
100
AcDbBlockBegin
2
*MODEL_SPACE
0
ENDBLK
5
21
100
AcDbEntity
100
AcDbBlockEnd
0
BLOCK
5
1C
100
AcDbEntity
100
AcDbBlockBegin
2
*PAPER_SPACE
0
ENDBLK
5
1D
100
AcDbEntity
100
AcDbBlockEnd
0
ENDSEC
0
SECTION
2
ENTITIES
0
LINE
5
100
100
AcDbEntity
8
0
100
AcDbLine
10
0
20
-197.90000000000003
30
0
11
153.80000000000001
21
-197.90000000000003
31
0
0
LINE
5
101
100
AcDbEntity
8
0
100
AcDbLine
10
153.80000000000001
20
-197.90000000000003
30
0
11
153.80000000000001
21
0
31
0
0
LINE
5
102
100
AcDbEntity
8
0
100
AcDbLine
10
153.80000000000001
20
0
30
0
11
0
21
0
31
0
0
LWPOLYLINE
5
103
100
AcDbEntity
8
0
100
AcDbPolyline
90
4
70
1
43
0.0
10
125.45
20
-86.5
10
96.649999999999991
20
-86.5
10
96.649999999999991
20
-65
10
125.45
20
-65
0
CIRCLE
5
104
100
AcDbEntity
8
0
100
AcDbCircle
10
22.499999999999854
20
-175.40365270805407
30
0
40
2.1499999999999901
210
0
220
0
230
1
0
CIRCLE
5
105
100
AcDbEntity
8
0
100
AcDbCircle
10
22.499999999999854
20
-143.40365270805407
30
0
40
2.1499999999999981
210
0
220
0
230
1
0
CIRCLE
5
106
100
AcDbEntity
8
0
100
AcDbCircle
10
54.507304582215639
20
-143.40365354175594
30
0
40
2.1500000000000061
210
0
220
0
230
1
0
CIRCLE
5
107
100
AcDbEntity
8
0
100
AcDbCircle
10
54.499999999999851
20
-175.40365270805407
30
0
40
2.1500000000000048
210
0
220
0
230
1
0
CIRCLE
5
108
100
AcDbEntity
8
0
100
AcDbCircle
10
99.300000000000011
20
-175.40365270805387
30
0
40
2.1499999999999959
210
0
220
0
230
1
0
CIRCLE
5
109
100
AcDbEntity
8
0
100
AcDbCircle
10
99.300000000000011
20
-143.4036527080539
30
0
40
2.1500000000000021
210
0
220
0
230
1
0
CIRCLE
5
110
100
AcDbEntity
8
0
100
AcDbCircle
10
131.30000000000001
20
-175.40365270805387
30
0
40
2.1499999999999879
210
0
220
0
230
1
0
CIRCLE
5
111
100
AcDbEntity
8
0
100
AcDbCircle
10
131.30000000000001
20
-143.4036527080539
30
0
40
2.1499999999999937
210
0
220
0
230
1
0
CIRCLE
5
112
100
AcDbEntity
8
0
100
AcDbCircle
10
38.5
20
-159.40000000000003
30
0
40
18.5
210
0
220
0
230
1
0
CIRCLE
5
113
100
AcDbEntity
8
0
100
AcDbCircle
10
115.30000000000001
20
-159.40000000000003
30
0
40
18.5
210
0
220
0
230
1
0
LINE
5
114
100
AcDbEntity
8
0
100
AcDbLine
10
0
20
0
30
0
11
0
21
-20
31
0
0
LINE
5
115
100
AcDbEntity
8
0
100
AcDbLine
10
0
20
-100
30
0
11
0
21
-197.90000000000003
31
0
0
LWPOLYLINE
5
116
100
AcDbEntity
8
0
100
AcDbPolyline
90
4
70
1
43
0.0
10
47.25
20
-112
10
29.75
20
-112
10
29.75
20
-32
10
47.25
20
-32
0
LINE
5
117
100
AcDbEntity
8
0
100
AcDbLine
10
0
20
-100
30
0
11
0
21
-20
31
0
0
LWPOLYLINE
5
118
100
AcDbEntity
8
0
100
AcDbPolyline
90
8
70
1
43
0.0
10
124.35000000000004
20
-44.5
10
97.750000000000028
20
-44.500000000000014
42
-0.41421356237309503
10
94.750000000000014
20
-41.5
10
94.750000000000014
20
-23
42
-0.41421356237309503
10
97.75
20
-20
10
124.35000000000002
20
-19.999999999999993
42
-0.41421356237309503
10
127.35000000000002
20
-23
10
127.35000000000002
20
-41.5
42
-0.41421356237309503
0
CIRCLE
5
119
100
AcDbEntity
8
0
100
AcDbCircle
10
90.050000000000026
20
-32.5
30
0
40
1.750000000000006
210
0
220
0
230
1
0
CIRCLE
5
120
100
AcDbEntity
8
0
100
AcDbCircle
10
132.05000000000004
20
-32.25
30
0
40
1.7499999999999962
210
0
220
0
230
1
0
ENDSEC
0
SECTION
2
OBJECTS
0
DICTIONARY
5
C
100
AcDbDictionary
3
ACAD_GROUP
350
D
3
ACAD_MLINESTYLE
350
17
0
DICTIONARY
5
D
100
AcDbDictionary
0
DICTIONARY
5
1A
330
C
100
AcDbDictionary
0
DICTIONARY
5
17
100
AcDbDictionary
0
ENDSEC
0
EOF
