0
SECTION
2
HEADER
9
$INSUNITS
70
4
9
$ACADVER
1
AC1014
9
$HANDSEED
5
FFFF
0
ENDSEC
0
SECTION
2
TABLES
0
TABLE
2
VPORT
5
8
100
AcDbSymbolTable
0
ENDTAB
0
TABLE
2
LTYPE
5
5
100
AcDbSymbolTable
0
LTYPE
5
14
100
AcDbSymbolTableRecord
100
AcDbLinetypeTableRecord
2
BYBLOCK
70
0
0
LTYPE
5
15
100
AcDbSymbolTableRecord
100
AcDbLinetypeTableRecord
2
BYLAYER
70
0
0
ENDTAB
0
TABLE
2
LAYER
5
2
100
AcDbSymbolTable
70
2
0
LAYER
5
50
100
AcDbSymbolTableRecord
100
AcDbLayerTableRecord
2
0
70
0
6
CONTINUOUS
0
ENDTAB
0
TABLE
2
STYLE
5
3
100
AcDbSymbolTable
70
1
0
STYLE
5
11
100
AcDbSymbolTableRecord
100
AcDbTextStyleTableRecord
2
STANDARD
70
0
0
ENDTAB
0
TABLE
2
VIEW
5
6
100
AcDbSymbolTable
70
0
0
ENDTAB
0
TABLE
2
UCS
5
7
100
AcDbSymbolTable
70
0
0
ENDTAB
0
TABLE
2
APPID
5
9
100
AcDbSymbolTable
70
2
0
APPID
5
12
100
AcDbSymbolTableRecord
100
AcDbRegAppTableRecord
2
ACAD
70
0
0
ENDTAB
0
TABLE
2
DIMSTYLE
5
A
100
AcDbSymbolTable
70
1
0
ENDTAB
0
TABLE
2
BLOCK_RECORD
5
1
100
AcDbSymbolTable
70
1
0
BLOCK_RECORD
5
1F
100
AcDbSymbolTableRecord
100
AcDbBlockTableRecord
2
*MODEL_SPACE
0
BLOCK_RECORD
5
1B
100
AcDbSymbolTableRecord
100
AcDbBlockTableRecord
2
*PAPER_SPACE
0
ENDTAB
0
ENDSEC
0
SECTION
2
BLOCKS
0
BLOCK
5
20
100
AcDbEntity
100
AcDbBlockBegin
2
*MODEL_SPACE
0
ENDBLK
5
21
100
AcDbEntity
100
AcDbBlockEnd
0
BLOCK
5
1C
100
AcDbEntity
100
AcDbBlockBegin
2
*PAPER_SPACE
0
ENDBLK
5
1D
100
AcDbEntity
100
AcDbBlockEnd
0
ENDSEC
0
SECTION
2
ENTITIES
0
LINE
5
100
100
AcDbEntity
8
0
100
AcDbLine
10
0
20
0
30
0
11
0
21
-197.90000000000003
31
0
0
LINE
5
101
100
AcDbEntity
8
0
100
AcDbLine
10
0
20
-197.90000000000003
30
0
11
153.80000000000001
21
-197.90000000000003
31
0
0
LINE
5
102
100
AcDbEntity
8
0
100
AcDbLine
10
153.80000000000001
20
-197.90000000000003
30
0
11
153.80000000000001
21
0
31
0
0
LINE
5
103
100
AcDbEntity
8
0
100
AcDbLine
10
153.80000000000001
20
0
30
0
11
0
21
0
31
0
0
LWPOLYLINE
5
104
100
AcDbEntity
8
0
100
AcDbPolyline
90
4
70
1
43
0.0
10
112.34999999999999
20
-177.90000000000003
10
41.450000000000003
20
-177.90000000000003
10
41.450000000000003
20
-153.90000000000001
10
112.34999999999999
20
-153.90000000000001
0
CIRCLE
5
105
100
AcDbEntity
8
0
100
AcDbCircle
10
39.400000000000006
20
-181.40000000000003
30
0
40
1.5000000000000067
210
0
220
0
230
1
0
CIRCLE
5
106
100
AcDbEntity
8
0
100
AcDbCircle
10
102.95
20
-140.69999999999999
30
0
40
1.4999999999999933
210
0
220
0
230
1
0
CIRCLE
5
107
100
AcDbEntity
8
0
100
AcDbCircle
10
113.94999999999999
20
-140.69999999999999
30
0
40
1.4999999999999971
210
0
220
0
230
1
0
CIRCLE
5
108
100
AcDbEntity
8
0
100
AcDbCircle
10
90.649999999999991
20
-140.69999999999999
30
0
40
1.4999999999999969
210
0
220
0
230
1
0
CIRCLE
5
109
100
AcDbEntity
8
0
100
AcDbCircle
10
78.349999999999994
20
-140.69999999999999
30
0
40
1.499999999999998
210
0
220
0
230
1
0
CIRCLE
5
110
100
AcDbEntity
8
0
100
AcDbCircle
10
66.049999999999983
20
-140.69999999999999
30
0
40
1.5000000000000022
210
0
220
0
230
1
0
CIRCLE
5
111
100
AcDbEntity
8
0
100
AcDbCircle
10
53.749999999999986
20
-140.69999999999999
30
0
40
1.5000000000000062
210
0
220
0
230
1
0
CIRCLE
5
112
100
AcDbEntity
8
0
100
AcDbCircle
10
42.749999999999986
20
-140.69999999999999
30
0
40
1.5000000000000036
210
0
220
0
230
1
0
CIRCLE
5
113
100
AcDbEntity
8
0
100
AcDbCircle
10
114.40000000000001
20
-181.40000000000003
30
0
40
1.499999999999984
210
0
220
0
230
1
0
LWPOLYLINE
5
114
100
AcDbEntity
8
0
100
AcDbPolyline
90
4
70
1
43
0.0
10
37.60000000000003
20
-113.11110682772147
10
31.800000000000033
20
-113.11110682772147
10
31.800000000000026
20
-110.11110682772149
42
-10.038312699214291
10
37.600000000000023
20
-110.11110682772147
0
LWPOLYLINE
5
115
100
AcDbEntity
8
0
100
AcDbPolyline
90
4
70
1
43
0.0
10
122.00000000000004
20
-113.11110682772147
10
116.20000000000005
20
-113.1111068277215
10
116.20000000000005
20
-110.11110682772147
42
-10.038312699214224
10
122.00000000000009
20
-110.11110682772147
0
CIRCLE
5
116
100
AcDbEntity
8
0
100
AcDbCircle
10
114.39999999999999
20
-150.40000000000003
30
0
40
1.4999999999999971
210
0
220
0
230
1
0
CIRCLE
5
117
100
AcDbEntity
8
0
100
AcDbCircle
10
39.400000000000006
20
-150.40000000000003
30
0
40
1.5000000000000024
210
0
220
0
230
1
0
LWPOLYLINE
5
118
100
AcDbEntity
8
0
100
AcDbPolyline
90
4
70
1
43
0.0
10
69.550000000000011
20
-20.092358854511119
10
69.550000000000011
20
-25.0076411454889
42
0.72004882374300716
10
84.25
20
-25.007641145488925
10
84.25
20
-20.09235885451109
42
0.72004882374300561
0
ENDSEC
0
SECTION
2
OBJECTS
0
DICTIONARY
5
C
100
AcDbDictionary
3
ACAD_GROUP
350
D
3
ACAD_MLINESTYLE
350
17
0
DICTIONARY
5
D
100
AcDbDictionary
0
DICTIONARY
5
1A
330
C
100
AcDbDictionary
0
DICTIONARY
5
17
100
AcDbDictionary
0
ENDSEC
0
EOF
